<svg viewBox="0 0 600 600" xmlns="http://www.w3.org/2000/svg">
	<line x1="200" x2="297.310270744292" y1="326.9488515705296" y2="292.515986537934" stroke="black" />
	<line x1="400" x2="232.87629773239" y1="358.62952671175736" y2="268.639840875352" stroke="black" />
	<line x1="200" x2="400" y1="299.9248245491454" y2="260.9004343052429" stroke="black" />
	<line x1="256.53643308704284" x2="302.813003461079" y1="200" y2="305.174023577355" stroke="black" />
	<line x1="200" x2="295.945827803142" y1="309.7831327345599" y2="303.241371747982" stroke="black" />
	<line x1="200" x2="302.156214061218" y1="302.49399320350267" y2="313.203918871211" stroke="black" />
	<line x1="400" x2="204.422685219118" y1="257.2257854139538" y2="325.560027927756" stroke="black" />
	<line x1="200" x2="219.641061136905" y1="317.4119884167344" y2="378.82488380255" stroke="black" />
	<line x1="213.2034322272076" x2="200" y1="400" y2="368.45197609428277" stroke="black" />
	<line x1="364.4054548012874" x2="344.8705710803572" y1="200" y2="400" stroke="black" />
	<line x1="400" x2="276.206102023422" y1="266.4902886401915" y2="297.438763134336" stroke="black" />
	<line x1="400" x2="276.625784375777" y1="259.8762981223412" y2="270.562253806329" stroke="black" />
	<line x1="331.20349790711225" x2="400" y1="200" y2="234.7258534373624" stroke="black" />
	<line x1="362.43849426301165" x2="400" y1="200" y2="299.07956237709533" stroke="black" />
	<line x1="400" x2="254.272199043811" y1="275.46978897867024" y2="302.965600479838" stroke="black" />
	<line x1="225.5903967391218" x2="215.093159170061" y1="200" y2="400" stroke="black" />
	<line x1="400" x2="329.250429301862" y1="399.4226626418636" y2="253.501673076954" stroke="black" />
	<line x1="350.041549384713" x2="200" y1="200" y2="312.1000081609925" stroke="black" />
	<line x1="200" x2="242.398934926907" y1="324.6590372005586" y2="232.478268230119" stroke="black" />
	<line x1="294.84136260357457" x2="260.463050192022" y1="400" y2="277.527262033844" stroke="black" />
	<line x1="200" x2="206.190824427302" y1="326.71710363906874" y2="321.478713739044" stroke="black" />
	<line x1="400" x2="333.8666651190831" y1="251.96190597786327" y2="200" stroke="black" />
	<line x1="400" x2="253.173926229392" y1="383.54423839836926" y2="277.932501124774" stroke="black" />
	<line x1="200" x2="319.245333459858" y1="342.0611042478415" y2="276.12544927592" stroke="black" />
	<line x1="400" x2="200" y1="291.23043995134213" y2="317.8971066180088" stroke="black" />
	<line x1="200" x2="400" y1="257.81914809746985" y2="308.3851858333189" stroke="black" />
	<line x1="400" x2="312.375400020287" y1="318.66375551389973" y2="269.983422191837" stroke="black" />
	<line x1="250.0638627348704" x2="200" y1="400" y2="368.43106744743835" stroke="black" />
	<line x1="400" x2="243.561596999519" y1="257.23945943126705" y2="347.460548992391" stroke="black" />
	<line x1="400" x2="200" y1="257.069096095013" y2="328.4976675235844" stroke="black" />
	<line x1="400" x2="218.234173540314" y1="227.40308665433363" y2="327.954394908628" stroke="black" />
	<line x1="391.81535304168057" x2="304.779553291102" y1="200" y2="316.707095120094" stroke="black" />
	<line x1="368.7494936888455" x2="343.47068327992355" y1="400" y2="200" stroke="black" />
	<line x1="298.081169018049" x2="275.06230109352066" y1="400" y2="200" stroke="black" />
	<line x1="319.02039011074856" x2="273.24085221005" y1="200" y2="349.823942220468" stroke="black" />
	<line x1="400" x2="362.872081395246" y1="251.00568472916922" y2="260.867788108557" stroke="black" />
	<line x1="400" x2="284.23000758564046" y1="361.67177888040385" y2="200" stroke="black" />
	<line x1="200.97108714200905" x2="288.850744113737" y1="400" y2="243.139537018206" stroke="black" />
	<line x1="200" x2="211.615138782392" y1="332.88031868897" y2="336.752031616434" stroke="black" />
	<line x1="265.46654278452786" x2="268.9549148775511" y1="200" y2="400" stroke="black" />
	<line x1="245.7356304648622" x2="264.963599419979" y1="400" y2="287.379038977173" stroke="black" />
	<line x1="221.86259774164452" x2="256.345773983627" y1="400" y2="270.390820331859" stroke="black" />
	<line x1="365.5418304541731" x2="400" y1="200" y2="252.02507951036606" stroke="black" />
	<line x1="400" x2="385.123237312359" y1="265.8814614512372" y2="222.395539748902" stroke="black" />
	<line x1="294.9087805529012" x2="304.189358633363" y1="200" y2="328.071977510373" stroke="black" />
	<line x1="200" x2="400" y1="299.8657238653939" y2="271.15285257826514" stroke="black" />
	<line x1="200" x2="400" y1="374.58311604934323" y2="249.20998172098504" stroke="black" />
	<line x1="400" x2="200" y1="299.1141203812646" y2="337.31636757227585" stroke="black" />
	<line x1="359.62305513948786" x2="400" y1="200" y2="231.31273274896859" stroke="black" />
	<line x1="258.1965732052484" x2="340.184236512978" y1="200" y2="337.171667457163" stroke="black" />
	<line x1="262.04320496511195" x2="389.808047866094" y1="400" y2="218.180800487064" stroke="black" />
	<line x1="400" x2="260.835002795446" y1="216.47694228966114" y2="334.767189913532" stroke="black" />
	<line x1="200" x2="308.510646213283" y1="220.72652760580374" y2="345.83291971053" stroke="black" />
	<line x1="200" x2="400" y1="352.726722418855" y2="252.726722418855" stroke="black" />
	<line x1="200" x2="268.10002984436" y1="340.25922231429126" y2="292.747573585668" stroke="black" />
	<line x1="400" x2="314.886450323609" y1="254.95584549288796" y2="266.853438458405" stroke="black" />
	<line x1="298.914075967687" x2="200" y1="400" y2="232.98115041521703" stroke="black" />
	<line x1="297.19180973648287" x2="353.2201785308091" y1="400" y2="200" stroke="black" />
	<line x1="383.5065166394038" x2="355.09742573031286" y1="200" y2="400" stroke="black" />
	<line x1="223.36758416719553" x2="215.77978782999" y1="200" y2="372.622366671426" stroke="black" />
	<line x1="386.65727393087275" x2="334.849913515548" y1="400" y2="203.132030421766" stroke="black" />
	<line x1="251.16135943471826" x2="340.4743365339549" y1="400" y2="200" stroke="black" />
	<line x1="249.2534421607407" x2="207.7787877828605" y1="400" y2="200" stroke="black" />
	<line x1="296.6593896652455" x2="263.3945026015905" y1="400" y2="200" stroke="black" />
	<line x1="400" x2="200" y1="257.95892991375393" y2="327.52414730505825" stroke="black" />
	<line x1="280.17909143004783" x2="400" y1="200" y2="286.2203363254682" stroke="black" />
	<line x1="200" x2="230.544811532207" y1="315.0259795522948" y2="324.970801911618" stroke="black" />
	<line x1="400" x2="311.528730495717" y1="368.9407717068284" y2="242.211655930423" stroke="black" />
	<line x1="200" x2="384.704102303782" y1="286.4146082474352" y2="313.527137025972" stroke="black" />
	<line x1="223.13867196782755" x2="200" y1="200" y2="314.04059755572155" stroke="black" />
	<line x1="215.02370931379252" x2="200" y1="400" y2="375.9451845256693" stroke="black" />
	<line x1="392.4941045154376" x2="363.3483758722215" y1="400" y2="200" stroke="black" />
	<line x1="400" x2="257.342874496953" y1="287.6830486334024" y2="269.075597480831" stroke="black" />
	<line x1="200" x2="275.475860945149" y1="317.733967027878" y2="308.766538004692" stroke="black" />
	<line x1="262.67097590823846" x2="200" y1="400" y2="324.6131739074813" stroke="black" />
	<line x1="219.3630279787281" x2="200" y1="400" y2="279.5714113518131" stroke="black" />
	<line x1="200" x2="324.377664469964" y1="389.75536208963865" y2="212.184734198558" stroke="black" />
	<line x1="400" x2="226.333076814907" y1="222.36200233938172" y2="337.228313737396" stroke="black" />
	<line x1="400" x2="354.899534737682" y1="283.23020071088075" y2="241.351197253014" stroke="black" />
	<line x1="400" x2="208.52128541096" y1="281.6865525769351" y2="320.499805534173" stroke="black" />
	<line x1="400" x2="370.152155487384" y1="274.9278365834986" y2="214.038233777762" stroke="black" />
	<line x1="400" x2="369.23795956255" y1="288.7833922646039" y2="400" stroke="black" />
	<line x1="200" x2="218.742631248989" y1="337.8038149649883" y2="308.547024722664" stroke="black" />
	<line x1="200" x2="284.94592327316" y1="349.862085332635" y2="280.961503122183" stroke="black" />
	<line x1="390.35520050862544" x2="255.167313670734" y1="200" y2="359.419677874872" stroke="black" />
	<line x1="400" x2="200" y1="399.34264658856114" y2="347.3195252012779" stroke="black" />
	<line x1="400" x2="241.213195832234" y1="354.4535345137619" y2="220.8709849758" stroke="black" />
	<line x1="400" x2="320.707317754992" y1="284.8919431832534" y2="236.293202452442" stroke="black" />
	<line x1="332.966189034312" x2="400" y1="400" y2="265.932378068624" stroke="black" />
	<line x1="274.77211858709063" x2="330.80660134571133" y1="200" y2="400" stroke="black" />
	<line x1="252.75123241559936" x2="200" y1="400" y2="323.5107129973809" stroke="black" />
	<line x1="400" x2="200" y1="278.8996765449915" y2="328.8996765449915" stroke="black" />
	<line x1="258.038399717309" x2="200" y1="400" y2="315.13496219113483" stroke="black" />
	<line x1="268.85138526713223" x2="200" y1="400" y2="249.71525043214794" stroke="black" />
	<line x1="400" x2="383.74695272075" y1="316.7771463660162" y2="343.696255922274" stroke="black" />
	<line x1="200" x2="400" y1="349.7782038803383" y2="257.09527705107" stroke="black" />
	<line x1="200" x2="400" y1="301.63288266624534" y2="251.0304730276911" stroke="black" />
	<line x1="400" x2="209.862702088628" y1="323.2671631641333" y2="305.158849077336" stroke="black" />
	<line x1="208.3481072402039" x2="287.348492373042" y1="400" y2="261.068288214664" stroke="black" />
	<line x1="363.1656994350405" x2="400" y1="200" y2="215.44664217240236" stroke="black" />
	<line x1="354.82428290769417" x2="252.9195210029323" y1="200" y2="400" stroke="black" />
	<line x1="200" x2="273.3392821913699" y1="255.81596902513" y2="400" stroke="black" />
	<line x1="224.92781210740876" x2="298.301963241897" y1="400" y2="250.482861839156" stroke="black" />
	<line x1="200" x2="280.368112457762" y1="277.2359098311083" y2="367.937065319154" stroke="black" />
	<line x1="247.31558802768978" x2="291.720942798158" y1="200" y2="314.185197981204" stroke="black" />
	<line x1="262.874131050283" x2="400" y1="400" y2="265.4134989937962" stroke="black" />
	<line x1="373.4238080923724" x2="303.910667389517" y1="200" y2="315.855234504759" stroke="black" />
	<line x1="200" x2="292.344397060971" y1="328.9238551873548" y2="292.26806398758" stroke="black" />
	<line x1="335.4189619923159" x2="200" y1="400" y2="313.24722747367264" stroke="black" />
	<line x1="200" x2="277.248519473338" y1="282.6361745401844" y2="333.855301582289" stroke="black" />
	<line x1="336.79932528662323" x2="357.950029522026" y1="200" y2="307.868591600554" stroke="black" />
	<line x1="200" x2="400" y1="357.646633079735" y2="257.646633079735" stroke="black" />
	<line x1="400" x2="399.858556591456" y1="298.0836832569057" y2="298.406174228386" stroke="black" />
	<line x1="379.3723354184655" x2="203.835356196854" y1="400" y2="247.62414998124" stroke="black" />
	<line x1="200" x2="372.749980139537" y1="358.91224619774624" y2="226.913543424459" stroke="black" />
	<line x1="236.9942687651445" x2="370.538195507691" y1="200" y2="394.709084029209" stroke="black" />
	<line x1="400" x2="360.28169107559" y1="250.3402789059991" y2="208.967040443072" stroke="black" />
	<line x1="400" x2="287.6502355843546" y1="261.92506700074944" y2="200" stroke="black" />
	<line x1="400" x2="200" y1="362.06534523063885" y2="332.6535805247565" stroke="black" />
	<line x1="346.2823554304789" x2="285.507787419865" y1="200" y2="346.98965286288" stroke="black" />
	<line x1="324.8417303265101" x2="400" y1="200" y2="301.00455245713346" stroke="black" />
	<line x1="400" x2="388.690602185777" y1="280.74877779042333" y2="295.214286622569" stroke="black" />
	<line x1="200" x2="379.558430177054" y1="385.9459675862325" y2="251.277144953442" stroke="black" />
	<line x1="334.071157965202" x2="278.02720192124593" y1="400" y2="200" stroke="black" />
	<line x1="400" x2="373.155435518642" y1="269.79143515819715" y2="254.132105877405" stroke="black" />
	<line x1="400" x2="304.61074722677336" y1="308.72323434367763" y2="200" stroke="black" />
	<line x1="400" x2="326.110006034816" y1="247.79735001848965" y2="310.85014486878" stroke="black" />
	<line x1="316.4459398141163" x2="277.65806102623753" y1="200" y2="400" stroke="black" />
	<line x1="400" x2="316.4891072240375" y1="231.02776253336157" y2="200" stroke="black" />
	<line x1="200" x2="313.505309263304" y1="269.8982802667462" y2="322.638120934544" stroke="black" />
	<line x1="200" x2="254.5025181321331" y1="252.174773934073" y2="400" stroke="black" />
	<line x1="200" x2="344.763045837682" y1="218.78908432529406" y2="334.008651420592" stroke="black" />
	<line x1="317.9227841398615" x2="247.636227442164" y1="200" y2="312.458490716316" stroke="black" />
	<line x1="385.35393987771744" x2="334.47674689526133" y1="400" y2="200" stroke="black" />
	<line x1="214.023963652326" x2="333.451775320688" y1="200" y2="319.427811668362" stroke="black" />
	<line x1="200" x2="298.630728410116" y1="201.3797816788386" y2="338.459777096288" stroke="black" />
	<line x1="328.2698839618755" x2="400" y1="400" y2="294.7958298107508" stroke="black" />
	<line x1="351.3974308910579" x2="284.836129661955" y1="200" y2="314.485438114057" stroke="black" />
	<line x1="244.6502780553315" x2="299.3014408460292" y1="200" y2="400" stroke="black" />
	<line x1="393.135792276824" x2="300.335792276824" y1="400" y2="200" stroke="black" />
	<line x1="200" x2="387.169805669694" y1="299.15239967893365" y2="266.982589329455" stroke="black" />
	<line x1="200" x2="367.319007813404" y1="386.24239504717883" y2="220.127121102936" stroke="black" />
	<line x1="363.7448457624085" x2="400" y1="200" y2="222.31086414621015" stroke="black" />
	<line x1="400" x2="214.797394209482" y1="223.40925305600967" y2="348.450502825404" stroke="black" />
	<line x1="205.10210078281963" x2="200" y1="400" y2="387.51048245872283" stroke="black" />
	<line x1="219.30838284355318" x2="267.17495999454" y1="400" y2="280.333557122533" stroke="black" />
	<line x1="400" x2="230.12462413065" y1="239.290955528775" y2="324.22864346345" stroke="black" />
	<line x1="315.38699227415185" x2="223.837696499504" y1="400" y2="200" stroke="black" />
	<line x1="271.9786342571087" x2="337.7681079413193" y1="400" y2="200" stroke="black" />
	<line x1="229.8317778253576" x2="213.907040210342" y1="200" y2="353.939130278484" stroke="black" />
	<line x1="200" x2="400" y1="354.30607113456307" y2="252.7187695472615" stroke="black" />
	<line x1="200" x2="302.539445253002" y1="351.4575822026448" y2="283.931606060424" stroke="black" />
	<line x1="222.24366549588314" x2="200" y1="200" y2="276.78635212277464" stroke="black" />
	<line x1="386.0719772277034" x2="249.387181177382" y1="200" y2="312.5639496885" stroke="black" />
	<line x1="300.4117114453954" x2="400" y1="200" y2="227.160442333074" stroke="black" />
	<line x1="400" x2="369.168203243382" y1="255.82402621443913" y2="246.189089727996" stroke="black" />
	<line x1="288.1546957993254" x2="304.6357648416416" y1="400" y2="200" stroke="black" />
	<line x1="361.69226476652824" x2="267.84611092037443" y1="400" y2="200" stroke="black" />
	<line x1="400" x2="350.029819687148" y1="211.69559050807334" y2="278.322497591876" stroke="black" />
	<line x1="400" x2="289.828298326918" y1="267.546104791943" y2="256.952671938762" stroke="black" />
	<line x1="400" x2="200" y1="265.2645929102096" y2="329.55030719592395" stroke="black" />
	<line x1="316.2735724614663" x2="365.92874487525944" y1="400" y2="200" stroke="black" />
	<line x1="200" x2="400" y1="345.7162333486099" y2="248.04181474395872" stroke="black" />
	<line x1="200" x2="400" y1="385.96287464484635" y2="258.82001750198924" stroke="black" />
	<line x1="400" x2="200" y1="351.0996103962744" y2="329.8874891841532" stroke="black" />
	<line x1="207.47259974188762" x2="397.52235098566877" y1="200" y2="400" stroke="black" />
	<line x1="200" x2="237.50623557045" y1="327.8834743099973" y2="352.139003900468" stroke="black" />
	<line x1="355.8163026944799" x2="315.2633073027748" y1="400" y2="200" stroke="black" />
	<line x1="400" x2="360.580900282109" y1="338.96043187771335" y2="238.896563363067" stroke="black" />
	<line x1="338.406851620326" x2="400" y1="400" y2="276.813703240652" stroke="black" />
	<line x1="309.4452836263124" x2="230.040468098077" y1="200" y2="360.031243603059" stroke="black" />
	<line x1="400" x2="391.565037886172" y1="230.69493086344642" y2="223.946961172384" stroke="black" />
	<line x1="211.3554012423982" x2="343.0426440407521" y1="200" y2="400" stroke="black" />
	<line x1="253.4392611434363" x2="291.976826519365" y1="200" y2="304.601963163235" stroke="black" />
	<line x1="208.92115767767396" x2="362.592804558422" y1="400" y2="225.518650937484" stroke="black" />
	<line x1="355.01596802728835" x2="400" y1="200" y2="242.04389916403767" stroke="black" />
	<line x1="367.61010773560486" x2="400" y1="200" y2="301.0179808245986" stroke="black" />
	<line x1="200" x2="400" y1="288.6530028700861" y2="257.6185201114654" stroke="black" />
	<line x1="201.80604064472206" x2="317.757094907918" y1="400" y2="207.553458549279" stroke="black" />
	<line x1="272.15946815134265" x2="400" y1="200" y2="259.3545326440195" stroke="black" />
	<line x1="400" x2="200" y1="237.1335267145985" y2="326.4952288422581" stroke="black" />
	<line x1="200" x2="292.945328800718" y1="257.61033686697886" y2="363.298170422634" stroke="black" />
	<line x1="313.7501761111393" x2="275.13631472500066" y1="400" y2="200" stroke="black" />
	<line x1="400" x2="290.593366206889" y1="345.9797522892302" y2="245.844867122654" stroke="black" />
	<line x1="400" x2="294.9878392854462" y1="351.4385896620406" y2="200" stroke="black" />
	<line x1="400" x2="381.687920210979" y1="216.10911435133" y2="271.045353718393" stroke="black" />
	<line x1="400" x2="232.12266660152" y1="306.03263462757917" y2="297.102989234043" stroke="black" />
	<line x1="200" x2="232.276838752115" y1="324.52097054751965" y2="221.705345118597" stroke="black" />
	<line x1="338.83304524576863" x2="400" y1="400" y2="253.60040337511833" stroke="black" />
	<line x1="277.59535541582943" x2="259.785039584342" y1="200" y2="329.124789778284" stroke="black" />
	<line x1="400" x2="200" y1="371.33940458204825" y2="291.1774612622102" stroke="black" />
	<line x1="200" x2="351.891341049466" y1="300.39701891848114" y2="293.840558153756" stroke="black" />
	<line x1="200" x2="273.496532552752" y1="300.2438198692717" y2="319.724828497712" stroke="black" />
	<line x1="200" x2="231.345807397364" y1="313.4971439782818" y2="379.77113676128" stroke="black" />
	<line x1="333.8484491544648" x2="400" y1="400" y2="224.39770139185202" stroke="black" />
	<line x1="200" x2="225.049681265277" y1="330.42692788781517" y2="350.667070350159" stroke="black" />
	<line x1="343.81750118512775" x2="200" y1="400" y2="334.5308390127404" stroke="black" />
	<line x1="400" x2="200" y1="256.5142222225648" y2="327.4136931220357" stroke="black" />
	<line x1="400" x2="240.415409787197" y1="346.5610658207643" y2="300.458850870399" stroke="black" />
	<line x1="356.2324650984985" x2="400" y1="200" y2="237.73063353577714" stroke="black" />
	<line x1="200" x2="226.1630453295133" y1="234.46842474211792" y2="400" stroke="black" />
	<line x1="291.33966488035975" x2="308.2818136406903" y1="200" y2="400" stroke="black" />
	<line x1="372.4299497841289" x2="400" y1="200" y2="276.34783136702777" stroke="black" />
	<line x1="400" x2="200" y1="340.64838294903524" y2="325.83356813422046" stroke="black" />
	<line x1="400" x2="208.964548483842" y1="257.69041043885784" y2="248.006585707624" stroke="black" />
	<line x1="309.89448601983366" x2="232.666236050812" y1="400" y2="285.055627953084" stroke="black" />
	<line x1="400" x2="200" y1="363.7853956820015" y2="283.96476787931095" stroke="black" />
	<line x1="216.26110942430392" x2="200" y1="400" y2="358.44383147122323" stroke="black" />
	<line x1="400" x2="242.108718348363" y1="234.5637889017988" y2="329.298557892781" stroke="black" />
	<line x1="400" x2="339.1913463112065" y1="266.2310814062655" y2="200" stroke="black" />
	<line x1="400" x2="319.7411893624049" y1="306.43016193246314" y2="200" stroke="black" />
	<line x1="400" x2="259.45832565899" y1="256.80951729059456" y2="296.52781656088" stroke="black" />
	<line x1="400" x2="306.515533451112" y1="245.58333492879663" y2="200" stroke="black" />
	<line x1="400" x2="200" y1="282.89748555002325" y2="298.2821009346386" stroke="black" />
	<line x1="200" x2="275.243184164786" y1="302.04788762184813" y2="357.831627606086" stroke="black" />
	<line x1="200" x2="259.62652744728" y1="362.3522651408156" y2="231.761771928815" stroke="black" />
	<line x1="400" x2="354.379754049222" y1="235.4112976881711" y2="222.969412428868" stroke="black" />
	<line x1="400" x2="200" y1="303.1697309689998" y2="325.6416410813593" stroke="black" />
	<line x1="268.80408169146574" x2="200" y1="200" y2="320.92838600318225" stroke="black" />
	<line x1="333.19920802303295" x2="305.879656958362" y1="400" y2="267.305037685884" stroke="black" />
	<line x1="295.65241226354254" x2="236.641390703285" y1="200" y2="354.740012091342" stroke="black" />
	<line x1="387.2366020931185" x2="376.313677464737" y1="200" y2="324.83342432436" stroke="black" />
	<line x1="257.2433394528875" x2="332.91901512856316" y1="200" y2="400" stroke="black" />
	<line x1="304.67398835840754" x2="383.9192713772755" y1="200" y2="400" stroke="black" />
	<line x1="400" x2="292.035966211078" y1="303.9583260905704" y2="217.8297148657" stroke="black" />
	<line x1="200" x2="361.321846436444" y1="334.19993900362545" y2="265.369284524076" stroke="black" />
	<line x1="206.36062799597545" x2="200" y1="200" y2="221.3663348878893" stroke="black" />
	<line x1="400" x2="362.801665964622" y1="274.32452323336594" y2="321.984888716194" stroke="black" />
	<line x1="400" x2="388.412178051412" y1="258.31938969390745" y2="236.197184155694" stroke="black" />
	<line x1="263.3640822442313" x2="323.42414230429137" y1="400" y2="200" stroke="black" />
	<line x1="400" x2="210.955393865126" y1="387.67809638813924" y2="257.014912736094" stroke="black" />
	<line x1="400" x2="263.638034409194" y1="278.3137126859329" y2="299.064446580186" stroke="black" />
	<line x1="282.73842006707" x2="225.334425495701" y1="400" y2="304.326675714385" stroke="black" />
	<line x1="328.03669653473" x2="219.809239002265" y1="200" y2="329.872949038958" stroke="black" />
	<line x1="271.33189705938844" x2="400" y1="200" y2="287.691000093283" stroke="black" />
	<line x1="274.06251562384404" x2="293.15799301077874" y1="200" y2="400" stroke="black" />
	<line x1="400" x2="362.153037219957" y1="302.2367578082672" y2="211.404047136164" stroke="black" />
	<line x1="207.70880763548" x2="303.771292471082" y1="400" y2="271.916686885864" stroke="black" />
	<line x1="230.24015917319883" x2="223.5287497772257" y1="400" y2="200" stroke="black" />
	<line x1="200" x2="241.54306617256" y1="330.3246372822174" y2="393.495794606471" stroke="black" />
	<line x1="200" x2="260.413333808374" y1="328.82076839339976" y2="301.451191750932" stroke="black" />
	<line x1="252.53199609174473" x2="245.697463717644" y1="400" y2="200" stroke="black" />
	<line x1="400" x2="209.286244882252" y1="347.8383071473933" y2="237.06444938439" stroke="black" />
	<line x1="400" x2="364.848610870642" y1="259.36339822056317" y2="293.811759567334" stroke="black" />
	<line x1="400" x2="200" y1="351.0129656068425" y2="337.3766019704789" stroke="black" />
	<line x1="400" x2="311.538400500237" y1="255.67926638109162" y2="293.989407896737" stroke="black" />
	<line x1="200" x2="317.177964483134" y1="286.4968065735774" y2="312.779714495028" stroke="black" />
	<line x1="400" x2="278.527163682902" y1="210.41772421226628" y2="314.84174139714" stroke="black" />
	<line x1="200" x2="259.835934864482" y1="384.3811115557487" y2="297.951427862608" stroke="black" />
	<line x1="400" x2="200" y1="307.16440608190237" y2="271.08597470935337" stroke="black" />
	<line x1="210.2306470472007" x2="200" y1="400" y2="388.5626612497961" stroke="black" />
	<line x1="255.81530850488463" x2="359.507835104222" y1="400" y2="216.809869674504" stroke="black" />
	<line x1="400" x2="244.261897982942" y1="379.2272030302453" y2="281.890889269584" stroke="black" />
	<line x1="396.1184988554551" x2="383.97274986760084" y1="400" y2="200" stroke="black" />
	<line x1="260.04558589399" x2="200" y1="200" y2="320.09117178798" stroke="black" />
	<line x1="200" x2="400" y1="250.30377514806753" y2="304.33221116702487" stroke="black" />
	<line x1="245.14009267729986" x2="252.75108633480517" y1="200" y2="400" stroke="black" />
	<line x1="218.67963021463316" x2="200" y1="200" y2="270.8088308136094" stroke="black" />
	<line x1="321.3616727630093" x2="303.47549390122066" y1="400" y2="200" stroke="black" />
</svg>